<?xml version="1.0" encoding="utf-8"?>
<!-- Generator: Adobe Illustrator 26.0.3, SVG Export Plug-In . SVG Version: 6.00 Build 0)  -->
<svg version="1.1" id="Layer_1" xmlns="http://www.w3.org/2000/svg" xmlns:xlink="http://www.w3.org/1999/xlink" x="0px" y="0px"
	 viewBox="0 0 32 32" style="enable-background:new 0 0 32 32;" xml:space="preserve">
<path d="M16,0C7.2,0.1,0.1,7.2,0,16c0.1,8.8,7.2,15.9,16,16c8.8-0.1,15.9-7.2,16-16C31.9,7.2,24.8,0.1,16,0z M21.3,3.8
	c4.4,1.9,7.4,6.1,7.9,10.9h-4.7c-0.2-4-1.7-7.8-4.3-10.9H21.3z M17.1,3.8c2.9,2.9,4.7,6.8,4.9,10.9H10.2c0.3-4.1,2.1-7.9,4.9-10.9
	H17.1z M11.1,3.8H12c-2.6,3.1-4.2,6.9-4.5,10.9H2.8C3.2,9.8,6.4,5.5,11.1,3.8L11.1,3.8z M11.1,28.2c-4.6-1.7-7.9-5.9-8.3-10.9h4.7
	c0.2,4,1.6,7.8,4.1,10.9H11.1z M15.3,28.2c-3-2.9-4.8-6.7-5.1-10.9h11.5c-0.3,4.1-2.1,7.9-4.9,10.9H15.3z M21.3,28.2h-1.1
	c2.4-3.2,3.8-6.9,4-10.9H29C28.8,22.1,25.8,26.3,21.3,28.2L21.3,28.2z"/>
</svg>
