<?xml version="1.0" encoding="utf-8"?>
<!-- Generator: Adobe Illustrator 26.0.2, SVG Export Plug-In . SVG Version: 6.00 Build 0)  -->
<svg version="1.1" id="Layer_1" xmlns="http://www.w3.org/2000/svg" xmlns:xlink="http://www.w3.org/1999/xlink" x="0px" y="0px"
	 viewBox="0 0 15 15" style="enable-background:new 0 0 15 15;" xml:space="preserve">
<style type="text/css">
	.st0{fill:#B4B4FF;}
</style>
<circle class="st0" cx="7.5" cy="7.5" r="7.5"/>
<path d="M7.5,2.3c-2.9,0-5.2,2.3-5.2,5.2s2.3,5.2,5.2,5.2s5.2-2.3,5.2-5.2S10.4,2.3,7.5,2.3z M9.2,3.5c1.4,0.6,2.4,2,2.5,3.5h-1.5
	c-0.1-1.3-0.5-2.5-1.3-3.5H9.2z M7.8,3.5c0.9,1,1.5,2.2,1.6,3.5H5.6c0.1-1.3,0.7-2.6,1.6-3.5H7.8z M5.9,3.5h0.3
	c-0.8,1-1.3,2.2-1.4,3.5H3.2C3.4,5.5,4.4,4.2,5.9,3.5L5.9,3.5z M5.9,11.5c-1.5-0.6-2.5-2-2.7-3.5h1.5c0.1,1.3,0.5,2.5,1.3,3.5H5.9z
	 M7.3,11.5c-1-0.9-1.5-2.2-1.7-3.5h3.7c-0.1,1.3-0.7,2.6-1.6,3.5H7.3z M9.3,11.5H8.9c0.8-1,1.2-2.3,1.3-3.5h1.5
	C11.6,9.5,10.7,10.8,9.3,11.5L9.3,11.5z"/>
</svg>
