<?xml version="1.0" encoding="utf-8"?>
<!-- Generator: Adobe Illustrator 26.0.3, SVG Export Plug-In . SVG Version: 6.00 Build 0)  -->
<svg version="1.1" id="Layer_1" xmlns="http://www.w3.org/2000/svg" xmlns:xlink="http://www.w3.org/1999/xlink" x="0px" y="0px"
	 viewBox="0 0 48 48" style="enable-background:new 0 0 48 48;" xml:space="preserve">
<style type="text/css">
	.st0{fill:#7F7F7F;}
</style>
<g>
	<path class="st0" d="M10.8,25.3c0.4,5,3.7,9.2,8.3,10.9h0.5c-2.5-3.1-3.9-6.9-4.1-10.9H10.8z"/>
	<path class="st0" d="M18.2,25.3c0.3,4.2,2.1,8,5.1,10.9h1.5c2.8-3,4.6-6.8,4.9-10.9H18.2z"/>
	<path class="st0" d="M20,11.8h-0.9c-4.7,1.7-7.9,6-8.3,10.9h4.7C15.8,18.7,17.4,14.9,20,11.8z"/>
	<path class="st0" d="M30,22.7c-0.2-4.1-2-8-4.9-10.9h-2c-2.8,3-4.6,6.8-4.9,10.9H30z"/>
	<path class="st0" d="M24,0C10.7,0,0,10.7,0,24s10.7,24,24,24s24-10.7,24-24S37.3,0,24,0z M24,40c-8.8-0.1-15.9-7.2-16-16
		c0.1-8.8,7.2-15.9,16-16c8.8,0.1,15.9,7.2,16,16C39.9,32.8,32.8,39.9,24,40z"/>
	<path class="st0" d="M29.3,11.8h-1.1c2.6,3.1,4.1,6.9,4.3,10.9h4.7C36.7,17.9,33.7,13.7,29.3,11.8z"/>
	<path class="st0" d="M28.2,36.2h1.1c4.5-1.9,7.5-6.1,7.7-10.9h-4.8C32,29.3,30.6,33,28.2,36.2z"/>
</g>
</svg>
